<svg xmlns="http://www.w3.org/2000/svg" version="1.1" xmlns:xlink="http://www.w3.org/1999/xlink" xmlns:svgjs="http://svgjs.dev/svgjs" width="1000" height="1125" viewBox="0 0 1000 1125"><g transform="matrix(1,0,0,1,1.7053025658242404e-13,0)"><svg viewBox="0 0 320 360" data-background-color="#1ebbd7" preserveAspectRatio="xMidYMid meet" height="1125" width="1000" xmlns="http://www.w3.org/2000/svg" xmlns:xlink="http://www.w3.org/1999/xlink"><g id="tight-bounds" transform="matrix(1,0,0,1,0,0)"><svg viewBox="0 0 320 360" height="360" width="320"><g><svg></svg></g><g><svg viewBox="0 0 320 360" height="360" width="320"><g><path xmlns="http://www.w3.org/2000/svg" d="M20.961 227.22l3.726 4.658-1.863-6.056c-0.466-2.795-3.726 0.466-1.863 1.398M25.153 224.425c1.397 2.329 2.795 4.658 2.795 6.987 0 3.261 2.795 4.658 5.123 5.589-3.261-3.726-5.124-13.974-7.918-12.576M204.017 26.929c7.918 0 15.371-0.932 23.756 0.931 20.495 5.124 37.729 15.371 49.374 29.811l32.606 52.169c1.397 13.042 4.192 27.482 3.726 43.319 3.261 0 2.795-4.658 6.521-5.59-3.726 9.316-5.59 20.961-6.521 34.469-2.329-7.453 0-18.632 0.466-24.687-3.261 5.124-5.124 1.397-5.124-0.932 0.466-3.726-1.397-3.261-2.795-4.658-5.124-4.658-8.384-9.782-12.11-17.7 2.329-6.055 2.795-14.905-4.658-19.563-2.329-1.397-5.124-3.726-6.521-7.453-1.863-5.124-5.124-11.179-4.193-19.097 0.466-2.329-6.987 5.124-11.179 1.863-18.166-12.576-36.332-27.016-58.224-39.127-11.645 0-20.029-4.192-24.221-9.316-3.726-4.658-0.932-10.713 4.658-11.179 3.261 0 6.987-0.932 9.782 0.932 0.466-1.863 2.329-4.192 4.657-4.192M157.904 16.215l0.932 0.466c4.658 0.932 6.987 7.453 12.11 5.124 0 3.261 0.466 6.521-0.466 8.85-1.397 3.726-5.59 3.726-8.85 3.726-31.208-1.863-49.374 11.179-68.471 22.358-5.124 3.261-10.713 5.59-14.906 9.782-20.029 18.632-41.921 35.866-47.045 70.335l-4.192 38.195c-0.466 4.192-5.124 8.384-4.192 13.508l3.26 22.824c-3.261-3.261-5.124 0.932-4.192 2.795 0.466 1.397 2.329 6.055 5.124 1.863 3.726 6.987 7.453 20.495 12.576 26.55 15.837 18.632 36.332 35.4 53.101 52.169 4.192-0.932 7.453-0.932 8.384-3.727 1.397 2.795-1.397 5.59-3.726 6.056 7.453 4.658 15.837 8.85 27.016 9.781 14.44 0.932 27.948 3.261 40.524 6.522 6.521-1.863 13.042-2.795 20.029-3.261 2.329 0 3.726-3.726 6.521-4.658l0.466-4.658c2.795 4.192 2.329-1.397 0.466-4.192 3.261 2.795 4.192 5.124 5.589 6.987 0-1.397 3.726-6.521 3.727-0.466l0.931-6.055c1.397-0.932 1.863 5.124 3.261 0.931 1.397-4.192 4.192-0.932 6.987-2.329-0.932 1.863-0.466 5.59 2.794 3.261l3.727-3.261c2.329 5.59 6.055 3.261 7.918 2.329 20.495-13.042 40.99-28.413 60.553-43.784l-0.466 6.055 2.329-7.453c2.329 2.329 4.192 0.466 5.124-0.931 2.795-4.658 6.521-9.316 12.577-13.508-7.453 20.029-16.303 35.866-27.482 48.908l-4.658 5.59c0 3.261-0.932 7.453-4.658 7.918-1.863 0.466-5.59-0.932-8.384 1.863-1.397 1.863 3.261 5.59-0.466 2.795-3.261-2.329-6.521 0-10.248 0.932-2.795 0.932 1.863 3.726 2.795 5.589 0.932 1.863 1.863 3.726 1.398 6.056l-5.124-5.59c-6.055 3.261-9.782 9.316-14.906 13.974-2.329 1.863-1.397 5.124-1.397 7.918-3.261 0-6.987-0.932-8.85 0.932-1.397 1.863-0.932 4.658-0.932 7.453-4.658-0.466-5.124-7.453-9.315-6.056-4.192 0.932-8.85 1.397-12.577 3.727 2.795 5.59-4.658 2.329-3.726 3.26-6.987-4.192-13.042-7.453-20.495-4.658-15.837-5.124-35.4-2.795-49.84-0.931 0-2.329 0.466-4.658-0.466-5.124-0.932 2.329-3.726 1.397-3.26 1.397-8.85-6.055-17.7-9.782-27.016-14.905-8.384 0.932-16.303-3.261-18.632-5.59-6.521-6.055-13.974-2.795-20.029-4.192-13.042-3.261-17.7-16.769-19.098-26.084-0.932-4.658-4.658-6.521-6.055-6.056-6.055-19.563-15.371-37.263-22.824-55.429-1.863-4.658-1.397-9.316-1.397-14.44 2.329 0.932 4.658 0.466 4.192-2.794-2.329-15.371-7.918-27.016-13.974-38.195 3.261-15.837 3.726-34.469 11.179-48.443 6.521-12.576 18.632-19.098 27.016-29.811 2.795-3.726 2.795-8.85 5.59-12.11 9.316-9.316 18.632-19.098 28.879-27.482 4.658-3.726 10.247 0 17.234-1.397 2.329-8.384 11.645-15.837 20.495-13.508 3.726 0.932 11.179-8.85 13.508-9.782 3.726-1.397 1.863 3.726 1.863 6.987 8.85-6.987 20.961-10.713 32.14-14.906" fill="#010c80" fill-rule="nonzero" stroke="none" stroke-width="1" stroke-linecap="butt" stroke-linejoin="miter" stroke-miterlimit="10" stroke-dasharray="" stroke-dashoffset="0" font-family="none" font-weight="none" font-size="none" text-anchor="none" style="mix-blend-mode: normal" data-fill-palette-color="tertiary"></path></g><g transform="matrix(1,0,0,1,64,128.19069071633012)"><svg viewBox="0 0 192 103.61861856733975" height="103.61861856733975" width="192"><g><svg viewBox="0 0 192 103.61861856733975" height="103.61861856733975" width="192"><g><svg viewBox="0 0 192 103.61861856733975" height="103.61861856733975" width="192"><g transform="matrix(1,0,0,1,0,62.62900868692414)"><svg viewBox="0 0 192 40.98960988041561" height="40.98960988041561" width="192"><g><svg viewBox="0 0 192 40.98960988041561" height="40.98960988041561" width="192"><g><svg viewBox="0 0 192 40.98960988041561" height="40.98960988041561" width="192"><g transform="matrix(1,0,0,1,0,0)"><svg width="192" viewBox="2.299999952316284 -40.95000076293945 255.0299835205078 54.45000076293945" height="40.98960988041561" data-palette-color="#010c80"><path d="M2.3 0L2.3-2.45 6.45-2.95 6.45-34.05 2.55-34.7 2.55-37.15 9.1-37.15Q10.5-37.15 12.9-37.35L12.9-37.35Q15.4-37.55 16.8-37.55L16.8-37.55Q24.15-37.55 27.28-35.18 30.4-32.8 30.4-27.7L30.4-27.7Q30.4-24.15 28.43-21.2 26.45-18.25 23-17.2L23-17.2Q24.6-16.35 25.98-14.28 27.35-12.2 29.35-8.5L29.35-8.5Q30.9-5.7 31.73-4.4 32.55-3.1 33.3-2.95L33.3-2.95 35.25-2.45 35.25 0 28.35 0Q27.55 0 26.55-1.73 25.55-3.45 23.9-7.05L23.9-7.05Q22.1-11 20.78-13.33 19.45-15.65 18.15-16.3L18.15-16.3Q12.8-16.3 11.8-16.35L11.8-16.35 11.8-2.95 16.75-2.45 16.75 0 2.3 0ZM17.75-19Q20.95-19 22.8-21.1 24.65-23.2 24.65-27.35L24.65-27.35Q24.65-31 22.78-32.93 20.9-34.85 16.3-34.85L16.3-34.85Q14.7-34.85 13.1-34.65L13.1-34.65Q12.1-34.55 11.8-34.55L11.8-34.55 11.8-19.05Q12.55-19 14.9-19L14.9-19 17.75-19ZM37.45-7.5Q37.45-12.2 42.15-14.43 46.85-16.65 54.05-16.8L54.05-16.8 54.05-18.2Q54.05-20.55 53.55-21.9 53.05-23.25 51.82-23.88 50.6-24.5 48.35-24.5L48.35-24.5Q45.8-24.5 43.77-23.78 41.75-23.05 39.75-22L39.75-22 38.5-24.6Q39.15-25.15 40.9-26.05 42.65-26.95 44.95-27.65 47.25-28.35 49.55-28.35L49.55-28.35Q53.1-28.35 55.17-27.38 57.25-26.4 58.15-24.25 59.05-22.1 59.05-18.5L59.05-18.5 59.05-2.45 62-2.45 62-0.25Q61 0 59.47 0.25 57.95 0.5 56.8 0.5L56.8 0.5Q55.4 0.5 54.9 0.08 54.4-0.35 54.4-1.8L54.4-1.8 54.4-3.45Q52.9-1.95 50.72-0.7 48.55 0.55 45.8 0.55L45.8 0.55Q42.2 0.55 39.82-1.53 37.45-3.6 37.45-7.5L37.45-7.5ZM47.95-2.85Q49.25-2.85 50.95-3.65 52.65-4.45 54.05-5.55L54.05-5.55 54.05-14.15Q48.6-14.15 45.82-12.48 43.05-10.8 43.05-8.1L43.05-8.1Q43.05-5.4 44.37-4.13 45.7-2.85 47.95-2.85L47.95-2.85ZM64.9-13.7Q64.9-17.85 66.52-21.2 68.15-24.55 71.32-26.53 74.5-28.5 78.95-28.5L78.95-28.5Q81.09-28.5 82.65-28.1 84.2-27.7 86.34-27L86.34-27 86.15-19.3 82.9-19.3 81.8-24.4Q81.5-25.8 78-25.8L78-25.8Q74.5-25.8 72.47-22.98 70.45-20.15 70.45-14.95L70.45-14.95Q70.45-9.05 72.72-5.98 75-2.9 78.65-2.9L78.65-2.9Q80.75-2.9 82.62-3.55 84.5-4.2 85.84-5.1L85.84-5.1 86.8-3.1Q85.45-1.7 82.82-0.58 80.2 0.55 77.5 0.55L77.5 0.55Q73.4 0.55 70.57-1.3 67.75-3.15 66.32-6.38 64.9-9.6 64.9-13.7L64.9-13.7ZM93.84-2.85L93.84-37.3 89.64-37.85 89.64-40 97.79-40.95 97.89-40.95 98.99-40.2 98.99-28.6 98.79-24.35Q100.39-25.8 103.19-27.1 105.99-28.4 108.84-28.4L108.84-28.4Q111.99-28.4 113.74-27.2 115.49-26 116.19-23.53 116.89-21.05 116.89-16.85L116.89-16.85 116.89-2.9 120.39-2.45 120.39 0 108.44 0 108.44-2.45 111.69-2.9 111.69-16.9Q111.69-19.85 111.29-21.53 110.89-23.2 109.79-24.03 108.69-24.85 106.49-24.85L106.49-24.85Q104.69-24.85 102.64-23.95 100.59-23.05 99.04-21.85L99.04-21.85 99.04-2.9 102.49-2.45 102.49 0 90.84 0 90.84-2.45 93.84-2.85ZM132.64 0.5Q129.79 0.5 128.39-0.8 126.99-2.1 126.99-5.25L126.99-5.25 126.99-24.45 123.39-24.45 123.39-26.7Q123.64-26.75 124.79-27.05 125.94-27.35 126.34-27.6L126.34-27.6Q127.14-28.05 127.59-29.4L127.59-29.4Q127.99-30.35 128.54-32.45 129.09-34.55 129.19-34.95L129.19-34.95 132.14-34.95 132.24-27.75 140.59-27.75 140.59-24.45 132.24-24.45 132.24-9.1Q132.24-6.25 132.42-5.1 132.59-3.95 133.17-3.6 133.74-3.25 135.14-3.25L135.14-3.25Q136.49-3.25 138.12-3.6 139.74-3.95 140.64-4.35L140.64-4.35 141.39-2.1Q140.19-1.2 137.52-0.35 134.84 0.5 132.64 0.5L132.64 0.5ZM148.74-2.95L148.74-34.05 144.84-34.65 144.84-37.15 151.49-37.15Q153.29-37.15 155.04-37.3L155.04-37.3Q157.74-37.5 160.14-37.5L160.14-37.5Q167.39-37.45 170.39-34.8 173.39-32.15 173.39-26.8L173.39-26.8Q173.39-22.8 171.54-19.85 169.69-16.9 166.41-15.35 163.14-13.8 158.89-13.8L158.89-13.8Q157.44-13.8 155.94-13.88 154.44-13.95 154.09-14L154.09-14 154.09-3 160.94-2.45 160.94 0 144.59 0 144.59-2.45 148.74-2.95ZM154.09-16.75Q155.49-16.5 158.89-16.5L158.89-16.5Q162.84-16.5 165.31-18.9 167.79-21.3 167.79-26.75L167.79-26.75Q167.79-31.05 165.64-32.93 163.49-34.8 158.94-34.8L158.94-34.8Q157.34-34.8 155.54-34.6L155.54-34.6Q154.44-34.5 154.09-34.5L154.09-34.5 154.09-16.75ZM189.19 0.55Q183.14 0.55 179.96-3.4 176.79-7.35 176.79-13.95L176.79-13.95Q176.79-18.3 178.44-21.6 180.09-24.9 183.06-26.7 186.04-28.5 189.84-28.5L189.84-28.5Q194.49-28.5 197.06-25.93 199.64-23.35 199.79-18.55L199.79-18.55Q199.79-15.5 199.44-13.9L199.44-13.9 182.24-13.9Q182.34-8.95 184.54-5.93 186.74-2.9 190.79-2.9L190.79-2.9Q192.79-2.9 194.96-3.63 197.14-4.35 198.34-5.35L198.34-5.35 199.29-3.15Q197.84-1.65 194.99-0.55 192.14 0.55 189.19 0.55L189.19 0.55ZM182.29-16.55L194.29-16.55Q194.44-17.6 194.44-18.7L194.44-18.7Q194.39-21.95 193.06-23.83 191.74-25.7 188.89-25.7L188.89-25.7Q185.99-25.7 184.26-23.6 182.54-21.5 182.29-16.55L182.29-16.55ZM216.03 13.5Q209.63 13.5 206.76 11.48 203.88 9.45 203.88 5.9L203.88 5.9Q203.88 3.7 205.26 1.85 206.63 0 208.53-0.95L208.53-0.95Q206.23-2.25 206.23-5.15L206.23-5.15Q206.23-6.95 207.28-8.55 208.33-10.15 210.03-11L210.03-11Q207.53-12.1 206.21-14.15 204.88-16.2 204.88-19L204.88-19Q204.88-21.9 206.51-24.05 208.13-26.2 210.81-27.35 213.48-28.5 216.48-28.5L216.48-28.5Q221.53-28.5 224.38-26.4L224.38-26.4Q225.13-27.15 226.68-27.85 228.23-28.55 229.98-28.55L229.98-28.55 231.68-28.55 231.68-24.15 226.18-24.15Q227.38-22.3 227.38-19.85L227.38-19.85Q227.38-16.9 225.91-14.63 224.43-12.35 221.81-11.1 219.18-9.85 215.88-9.85L215.88-9.85Q213.73-9.85 212.03-10.3L212.03-10.3Q211.33-9.6 210.88-8.75 210.43-7.9 210.43-7.1L210.43-7.1Q210.43-5.3 211.63-4.63 212.83-3.95 215.93-3.95L215.93-3.95 221.58-3.95Q226.43-3.95 228.78-2.1 231.13-0.25 231.13 3.15L231.13 3.15Q231.13 6 229.08 8.38 227.03 10.75 223.56 12.13 220.08 13.5 216.03 13.5L216.03 13.5ZM216.38-12.6Q222.08-12.6 222.08-19.35L222.08-19.35Q222.08-22.7 220.61-24.28 219.13-25.85 216.18-25.85L216.18-25.85Q213.43-25.85 211.83-24.33 210.23-22.8 210.23-19.45L210.23-19.45Q210.23-16.3 211.76-14.45 213.28-12.6 216.38-12.6L216.38-12.6ZM216.48 10.6Q218.93 10.6 221.11 9.88 223.28 9.15 224.63 7.73 225.98 6.3 225.98 4.4L225.98 4.4Q225.98 2.15 224.78 1.13 223.58 0.1 220.13 0.1L220.13 0.1 214.23 0.1Q212.23 0.1 211.08-0.15L211.08-0.15Q209.03 2.1 209.03 4.9L209.03 4.9Q209.03 7.7 210.73 9.15 212.43 10.6 216.48 10.6L216.48 10.6ZM246.73 0.55Q240.68 0.55 237.51-3.4 234.33-7.35 234.33-13.95L234.33-13.95Q234.33-18.3 235.98-21.6 237.63-24.9 240.61-26.7 243.58-28.5 247.38-28.5L247.38-28.5Q252.03-28.5 254.61-25.93 257.18-23.35 257.33-18.55L257.33-18.55Q257.33-15.5 256.98-13.9L256.98-13.9 239.78-13.9Q239.88-8.95 242.08-5.93 244.28-2.9 248.33-2.9L248.33-2.9Q250.33-2.9 252.51-3.63 254.68-4.35 255.88-5.35L255.88-5.35 256.83-3.15Q255.38-1.65 252.53-0.55 249.68 0.55 246.73 0.55L246.73 0.55ZM239.83-16.55L251.83-16.55Q251.98-17.6 251.98-18.7L251.98-18.7Q251.93-21.95 250.61-23.83 249.28-25.7 246.43-25.7L246.43-25.7Q243.53-25.7 241.81-23.6 240.08-21.5 239.83-16.55L239.83-16.55Z" opacity="1" transform="matrix(1,0,0,1,0,0)" fill="#010c80" class="undefined-text-0" data-fill-palette-color="primary" id="text-0"></path></svg></g></svg></g></svg></g></svg></g><g transform="matrix(1,0,0,1,60.088945948432105,0)"><svg viewBox="0 0 71.82210810313579 56.64764085473437" height="56.64764085473437" width="71.82210810313579"><g><svg xmlns="http://www.w3.org/2000/svg" xmlns:xlink="http://www.w3.org/1999/xlink" version="1.1" x="0" y="0" viewBox="0 0 99.00199127197266 78.08499908447266" enable-background="new 0 0 99 78.084" xml:space="preserve" width="71.82210810313579" height="56.64764085473437" class="icon-icon-0" data-fill-palette-color="accent" id="icon-0"><g fill="#00ffef" data-fill-palette-color="accent"><path d="M98.249 61.602c0.047-0.324 0.071-0.652 0.071-0.981 0-2.446-1.289-4.597-3.225-5.809-0.765-17.008-10.939-32.353-26.162-39.743 3.278-0.868 5.701-3.859 5.701-7.407C74.635 3.437 71.199 0 66.974 0c-3.307 0-6.111 2.061-7.186 4.996-2.207 1.455-5.199 3.514-7.752 5.561-1.116-0.08-2.231-0.12-3.334-0.12-5.099 0-10.085 0.817-14.86 2.431-1.926-1.701-4.152-2.992-6.186-4.171-0.365-0.211-0.721-0.419-1.067-0.622-1.097-2.896-3.882-4.922-7.158-4.922-4.225 0-7.662 3.437-7.662 7.662 0 3.375 2.194 6.248 5.231 7.267-0.102 1.236-0.124 2.797 0.352 4.533C7.723 31.41 2.262 43.726 2.262 56.877c0 0.694 0.017 1.375 0.048 2.038C0.878 60.239 0 62.128 0 64.196c0 1.599 0.521 3.093 1.422 4.299-0.041 0.304-0.06 0.611-0.06 0.92 0 3.963 3.224 7.188 7.187 7.188 1.132 0 2.215-0.261 3.185-0.737 4.054 1.927 8.761 2.219 12.644 2.219 3.346 0 6.962-0.246 10.791-0.508 4.345-0.296 8.837-0.602 13.535-0.602 4.698 0 9.191 0.306 13.536 0.602 3.831 0.262 7.447 0.508 10.794 0.508 4.604 0 10.188-0.422 14.586-3.315 0.513 0.122 1.045 0.187 1.584 0.187 2.884 0 5.355-1.79 6.365-4.317 2.05-1.185 3.433-3.4 3.433-5.933C99 63.614 98.734 62.552 98.249 61.602zM78.993 28.856c0 3.007-2.439 5.445-5.445 5.445-3.01 0-5.446-2.438-5.446-5.445 0-3.008 2.437-5.446 5.446-5.446 0.431 0 0.844 0.063 1.243 0.157 1.354 1.062 2.639 2.206 3.853 3.42C78.858 27.572 78.993 28.196 78.993 28.856zM92.152 67.426c-0.109 0-0.216-0.008-0.321-0.019 0.061 0.224 0.095 0.456 0.095 0.7 0 1.505-1.219 2.722-2.724 2.722-0.834 0-1.58-0.376-2.079-0.967C83.98 73.1 79.091 73.96 73.032 73.96c-6.882 0-15.273-1.11-24.33-1.11-9.055 0-17.444 1.11-24.325 1.11-5.446 0-9.948-0.696-13.086-3.187-0.501 1.009-1.539 1.703-2.742 1.703-1.691 0-3.063-1.37-3.063-3.062 0-0.888 0.379-1.685 0.983-2.244-1.344-0.324-2.344-1.53-2.344-2.975 0-1.507 1.087-2.754 2.519-3.013-0.168-1.306-0.256-2.734-0.256-4.307 0-13.414 6.243-25.367 15.979-33.12-2.938-4.418 0.369-7.945-1.954-9.547-0.312 0.091-0.64 0.141-0.981 0.141-1.954 0-3.537-1.583-3.537-3.536 0-1.953 1.583-3.537 3.537-3.537 1.911 0 3.463 1.517 3.53 3.412 3.21 2.066 7.414 3.913 9.777 6.989 4.928-2.008 10.316-3.118 15.964-3.118 1.575 0 3.128 0.089 4.658 0.256 3.151-2.718 7.698-5.747 10.084-7.281 0.064-1.896 1.618-3.412 3.529-3.412 1.953 0 3.536 1.584 3.536 3.537 0 1.952-1.583 3.536-3.536 3.536-0.34 0-0.67-0.05-0.982-0.141-1.321 0.913-1.768 3.397-2.447 6.185 2.978 1.115 5.795 2.558 8.411 4.281-3.378 0.734-5.917 3.742-5.917 7.334 0 4.14 3.369 7.507 7.51 7.507 3.898 0 7.11-2.986 7.472-6.792 6.234 7.37 9.999 16.896 9.999 27.306 0 0.362-0.005 0.717-0.014 1.064 0.15-0.026 0.308-0.044 0.468-0.044 1.503 0 2.723 1.22 2.723 2.723 0 0.668-0.243 1.28-0.642 1.753 0.79 0.477 1.321 1.341 1.321 2.332C94.875 66.208 93.655 67.426 92.152 67.426z" fill="#00ffef" data-fill-palette-color="accent"></path><path d="M72.865 40.96c-3.076 0-5.578 2.503-5.578 5.578 0 3.079 2.502 5.58 5.578 5.58s5.581-2.501 5.581-5.58C78.446 43.463 75.941 40.96 72.865 40.96zM72.865 50.056c-1.942 0-3.516-1.574-3.516-3.518 0-1.94 1.573-3.516 3.516-3.516s3.518 1.575 3.518 3.516C76.383 48.481 74.808 50.056 72.865 50.056z" fill="#00ffef" data-fill-palette-color="accent"></path><path d="M84.097 51.272c-2.325 0-4.217 1.893-4.217 4.219 0 2.325 1.892 4.216 4.217 4.216 2.327 0 4.22-1.891 4.22-4.216C88.316 53.165 86.424 51.272 84.097 51.272zM84.097 57.646c-1.19 0-2.155-0.965-2.155-2.154 0-1.191 0.965-2.157 2.155-2.157 1.192 0 2.157 0.966 2.157 2.157C86.254 56.681 85.289 57.646 84.097 57.646z" fill="#00ffef" data-fill-palette-color="accent"></path></g></svg></g></svg></g><g></g></svg></g></svg></g></svg></g></svg></g><defs></defs></svg><rect width="320" height="360" fill="none" stroke="none" visibility="hidden"></rect></g></svg></g></svg>